<mxfile host="app.diagrams.net" modified="2023-10-13T09:34:25.530Z" agent="Mozilla/5.0 (Windows NT 10.0; Win64; x64) AppleWebKit/537.36 (KHTML, like Gecko) Chrome/117.0.0.0 Safari/537.36" etag="9p12BiCqtaAfhNdAEEgX" version="22.0.4" type="device">
  <diagram id="_LshvxWWJEKT-Bn6iIm_" name="Страница — 4">
    <mxGraphModel dx="1103" dy="608" grid="1" gridSize="10" guides="1" tooltips="1" connect="1" arrows="1" fold="1" page="1" pageScale="1" pageWidth="827" pageHeight="1169" math="0" shadow="0">
      <root>
        <mxCell id="0" />
        <mxCell id="1" parent="0" />
        <mxCell id="VaRl6PWlZHmYKuRfiZSb-1" value="Диспетчер" style="shape=umlActor;verticalLabelPosition=bottom;verticalAlign=top;html=1;outlineConnect=0;" parent="1" vertex="1">
          <mxGeometry x="60" y="100" width="30" height="60" as="geometry" />
        </mxCell>
        <mxCell id="VaRl6PWlZHmYKuRfiZSb-2" value="Водитель" style="shape=umlActor;verticalLabelPosition=bottom;verticalAlign=top;html=1;outlineConnect=0;" parent="1" vertex="1">
          <mxGeometry x="590" y="110" width="30" height="60" as="geometry" />
        </mxCell>
        <mxCell id="VaRl6PWlZHmYKuRfiZSb-3" value="Распределяет&lt;br&gt;заявки на рейс&amp;nbsp;" style="ellipse;whiteSpace=wrap;html=1;" parent="1" vertex="1">
          <mxGeometry x="170" y="90" width="90" height="60" as="geometry" />
        </mxCell>
        <mxCell id="VaRl6PWlZHmYKuRfiZSb-6" value="" style="endArrow=none;html=1;rounded=0;entryX=0;entryY=0.5;entryDx=0;entryDy=0;exitX=1;exitY=0.3333333333333333;exitDx=0;exitDy=0;exitPerimeter=0;" parent="1" source="VaRl6PWlZHmYKuRfiZSb-1" target="VaRl6PWlZHmYKuRfiZSb-3" edge="1">
          <mxGeometry width="50" height="50" relative="1" as="geometry">
            <mxPoint x="80" y="60" as="sourcePoint" />
            <mxPoint x="130" y="10" as="targetPoint" />
          </mxGeometry>
        </mxCell>
        <mxCell id="VaRl6PWlZHmYKuRfiZSb-8" value="include" style="html=1;verticalAlign=bottom;endArrow=open;dashed=1;endSize=8;curved=0;rounded=0;entryX=0;entryY=0.5;entryDx=0;entryDy=0;exitX=1;exitY=0.5;exitDx=0;exitDy=0;" parent="1" source="VaRl6PWlZHmYKuRfiZSb-3" target="VaRl6PWlZHmYKuRfiZSb-20" edge="1">
          <mxGeometry x="0.0019" relative="1" as="geometry">
            <mxPoint x="319" y="10" as="sourcePoint" />
            <mxPoint x="239" y="10" as="targetPoint" />
            <mxPoint as="offset" />
          </mxGeometry>
        </mxCell>
        <mxCell id="VaRl6PWlZHmYKuRfiZSb-12" value="выбор автомобиля&lt;br&gt;для рейса" style="ellipse;whiteSpace=wrap;html=1;" parent="1" vertex="1">
          <mxGeometry x="221" y="260" width="90" height="60" as="geometry" />
        </mxCell>
        <mxCell id="VaRl6PWlZHmYKuRfiZSb-13" value="Отмечает выполнение рейса" style="ellipse;whiteSpace=wrap;html=1;" parent="1" vertex="1">
          <mxGeometry x="311" y="220" width="90" height="60" as="geometry" />
        </mxCell>
        <mxCell id="VaRl6PWlZHmYKuRfiZSb-14" value="Отмечает о состоянии автомобиля" style="ellipse;whiteSpace=wrap;html=1;" parent="1" vertex="1">
          <mxGeometry x="369" y="380" width="90" height="60" as="geometry" />
        </mxCell>
        <mxCell id="VaRl6PWlZHmYKuRfiZSb-16" value="include" style="html=1;verticalAlign=bottom;endArrow=open;dashed=1;endSize=8;curved=0;rounded=0;entryX=0.5;entryY=0;entryDx=0;entryDy=0;exitX=0.5;exitY=1;exitDx=0;exitDy=0;" parent="1" source="VaRl6PWlZHmYKuRfiZSb-18" target="VaRl6PWlZHmYKuRfiZSb-12" edge="1">
          <mxGeometry relative="1" as="geometry">
            <mxPoint x="383" y="290" as="sourcePoint" />
            <mxPoint x="429" y="200" as="targetPoint" />
            <Array as="points" />
          </mxGeometry>
        </mxCell>
        <mxCell id="VaRl6PWlZHmYKuRfiZSb-18" value="Регистрирует заявки" style="ellipse;whiteSpace=wrap;html=1;" parent="1" vertex="1">
          <mxGeometry x="161" y="160" width="90" height="60" as="geometry" />
        </mxCell>
        <mxCell id="VaRl6PWlZHmYKuRfiZSb-19" value="" style="endArrow=none;html=1;rounded=0;entryX=0;entryY=0.5;entryDx=0;entryDy=0;exitX=1;exitY=0.3333333333333333;exitDx=0;exitDy=0;exitPerimeter=0;" parent="1" source="VaRl6PWlZHmYKuRfiZSb-1" target="VaRl6PWlZHmYKuRfiZSb-18" edge="1">
          <mxGeometry width="50" height="50" relative="1" as="geometry">
            <mxPoint x="90" y="60" as="sourcePoint" />
            <mxPoint x="170" y="60" as="targetPoint" />
          </mxGeometry>
        </mxCell>
        <mxCell id="VaRl6PWlZHmYKuRfiZSb-20" value="Получает заявку на рейс" style="ellipse;whiteSpace=wrap;html=1;" parent="1" vertex="1">
          <mxGeometry x="347" y="130" width="90" height="60" as="geometry" />
        </mxCell>
        <mxCell id="VaRl6PWlZHmYKuRfiZSb-21" value="" style="endArrow=none;html=1;rounded=0;exitX=1;exitY=0.5;exitDx=0;exitDy=0;entryX=0;entryY=0.3333333333333333;entryDx=0;entryDy=0;entryPerimeter=0;" parent="1" source="VaRl6PWlZHmYKuRfiZSb-20" target="VaRl6PWlZHmYKuRfiZSb-2" edge="1">
          <mxGeometry width="50" height="50" relative="1" as="geometry">
            <mxPoint x="267" y="300" as="sourcePoint" />
            <mxPoint x="487" y="110" as="targetPoint" />
          </mxGeometry>
        </mxCell>
        <mxCell id="VaRl6PWlZHmYKuRfiZSb-24" value="Отклоняет заявку на рейс" style="ellipse;whiteSpace=wrap;html=1;" parent="1" vertex="1">
          <mxGeometry x="414" y="10" width="90" height="60" as="geometry" />
        </mxCell>
        <mxCell id="VaRl6PWlZHmYKuRfiZSb-25" value="Принимает заявку на рейс" style="ellipse;whiteSpace=wrap;html=1;" parent="1" vertex="1">
          <mxGeometry x="510" width="90" height="60" as="geometry" />
        </mxCell>
        <mxCell id="VaRl6PWlZHmYKuRfiZSb-28" value="extend" style="html=1;verticalAlign=bottom;endArrow=open;dashed=1;endSize=8;curved=0;rounded=0;entryX=0.5;entryY=1;entryDx=0;entryDy=0;exitX=0.5;exitY=0;exitDx=0;exitDy=0;" parent="1" source="VaRl6PWlZHmYKuRfiZSb-20" target="VaRl6PWlZHmYKuRfiZSb-24" edge="1">
          <mxGeometry x="0.0019" relative="1" as="geometry">
            <mxPoint x="310" y="55" as="sourcePoint" />
            <mxPoint x="388" y="125" as="targetPoint" />
            <mxPoint as="offset" />
          </mxGeometry>
        </mxCell>
        <mxCell id="VaRl6PWlZHmYKuRfiZSb-29" value="extend" style="html=1;verticalAlign=bottom;endArrow=open;dashed=1;endSize=8;curved=0;rounded=0;entryX=0.5;entryY=1;entryDx=0;entryDy=0;exitX=0.5;exitY=0;exitDx=0;exitDy=0;" parent="1" source="VaRl6PWlZHmYKuRfiZSb-20" target="VaRl6PWlZHmYKuRfiZSb-25" edge="1">
          <mxGeometry x="0.0019" relative="1" as="geometry">
            <mxPoint x="443" y="130" as="sourcePoint" />
            <mxPoint x="510" y="70" as="targetPoint" />
            <mxPoint as="offset" />
          </mxGeometry>
        </mxCell>
        <mxCell id="VaRl6PWlZHmYKuRfiZSb-30" value="include" style="html=1;verticalAlign=bottom;endArrow=open;dashed=1;endSize=8;curved=0;rounded=0;entryX=0;entryY=0;entryDx=0;entryDy=0;exitX=0.5;exitY=1;exitDx=0;exitDy=0;" parent="1" source="VaRl6PWlZHmYKuRfiZSb-13" target="VaRl6PWlZHmYKuRfiZSb-14" edge="1">
          <mxGeometry x="0.0019" relative="1" as="geometry">
            <mxPoint x="180" y="330" as="sourcePoint" />
            <mxPoint x="267" y="370" as="targetPoint" />
            <mxPoint as="offset" />
          </mxGeometry>
        </mxCell>
        <mxCell id="vN7WonHM4iOh6CAOJnLQ-1" value="Выполняет рейс" style="ellipse;whiteSpace=wrap;html=1;" vertex="1" parent="1">
          <mxGeometry x="437" y="230" width="90" height="60" as="geometry" />
        </mxCell>
        <mxCell id="vN7WonHM4iOh6CAOJnLQ-2" value="include" style="html=1;verticalAlign=bottom;endArrow=open;dashed=1;endSize=8;curved=0;rounded=0;entryX=1;entryY=0.5;entryDx=0;entryDy=0;exitX=0;exitY=0.5;exitDx=0;exitDy=0;" edge="1" parent="1" source="vN7WonHM4iOh6CAOJnLQ-1" target="VaRl6PWlZHmYKuRfiZSb-13">
          <mxGeometry x="0.0019" relative="1" as="geometry">
            <mxPoint x="527" y="310" as="sourcePoint" />
            <mxPoint x="540" y="389" as="targetPoint" />
            <mxPoint as="offset" />
          </mxGeometry>
        </mxCell>
        <mxCell id="vN7WonHM4iOh6CAOJnLQ-3" value="" style="endArrow=none;html=1;rounded=0;exitX=1;exitY=0.5;exitDx=0;exitDy=0;entryX=0;entryY=0.3333333333333333;entryDx=0;entryDy=0;entryPerimeter=0;" edge="1" parent="1" source="vN7WonHM4iOh6CAOJnLQ-1" target="VaRl6PWlZHmYKuRfiZSb-2">
          <mxGeometry width="50" height="50" relative="1" as="geometry">
            <mxPoint x="570" y="310" as="sourcePoint" />
            <mxPoint x="723" y="280" as="targetPoint" />
          </mxGeometry>
        </mxCell>
      </root>
    </mxGraphModel>
  </diagram>
</mxfile>
